<svg width="47" height="47" viewBox="0 0 47 47" fill="none" xmlns="http://www.w3.org/2000/svg">
<g clip-path="url(#clip0_6516_13861)">
<path d="M16.5451 13.5687L12.6851 10.0131C12.6069 9.94389 12.5453 9.85782 12.5051 9.76138C12.4649 9.66495 12.4471 9.56066 12.4529 9.45634C12.4588 9.35202 12.4883 9.25039 12.539 9.15908C12.5898 9.06777 12.6606 8.98915 12.7462 8.92913L14.6685 7.58312C15.0377 7.32456 15.5551 7.4856 15.712 7.9099L17.6527 12.812C17.9022 13.4843 17.0832 14.0443 16.5451 13.5687ZM10.3764 26.3098L5.30522 25.5203C5.20207 25.5044 5.09667 25.5121 4.99692 25.5428C4.89718 25.5735 4.80568 25.6264 4.72931 25.6975C4.65294 25.7686 4.59369 25.8562 4.556 25.9535C4.51831 26.0508 4.50316 26.1554 4.5117 26.2594L4.70554 28.5973C4.74344 29.0483 5.19641 29.3407 5.62216 29.1937L10.4995 27.6452C11.1763 27.406 11.087 26.4192 10.3764 26.3098ZM20.6006 36.9627L18.625 41.6883C18.448 42.0982 18.6985 42.5675 19.1386 42.6451L21.4498 43.0527C21.896 43.1313 22.2935 42.7667 22.2587 42.3163L21.9231 37.1832C21.8656 36.4654 20.8884 36.3026 20.6006 36.9627ZM33.4961 16.5576L38.3394 14.5367C38.7555 14.3721 38.9088 13.8628 38.6528 13.4972L37.3067 11.5749C37.246 11.4885 37.1663 11.4172 37.0738 11.3664C36.9812 11.3157 36.8783 11.2868 36.7728 11.282C36.6673 11.2772 36.5622 11.2966 36.4654 11.3387C36.3686 11.3808 36.2828 11.4446 36.2144 11.525L32.7141 15.4677C32.2497 16.0141 32.8278 16.8205 33.4961 16.5576ZM34.9351 30.6402L39.9704 31.6327C40.0728 31.6531 40.1692 31.6964 40.2525 31.7593C40.3357 31.8223 40.4036 31.9033 40.451 31.9962C40.4984 32.0892 40.5242 32.1917 40.5263 32.296C40.5285 32.4004 40.5069 32.5038 40.4633 32.5986L39.4816 34.7293C39.4373 34.825 39.3717 34.9093 39.2898 34.9758C39.208 35.0424 39.112 35.0893 39.0093 35.1131C38.9065 35.137 38.7997 35.137 38.6969 35.1133C38.5941 35.0895 38.4982 35.0426 38.4163 34.9762L34.3626 31.8529C33.8085 31.3966 34.2299 30.5 34.9351 30.6402Z" fill="#FFC107"/>
<path d="M27.8728 6.18203L30.3492 16.3604C30.4423 16.7435 30.6365 17.0945 30.9116 17.3769C31.1866 17.6592 31.5324 17.8626 31.9129 17.9657L41.8446 20.6499C42.957 21.0174 43.1656 22.498 42.1956 23.1583L33.4681 28.2038C32.7614 28.6123 32.3381 29.3754 32.369 30.19L32.7548 40.9232C32.7484 42.093 31.4044 42.7509 30.4776 42.0321L22.5793 35.3211C22.2814 35.0676 21.9213 34.8981 21.5362 34.8302C21.151 34.7623 20.7546 34.7984 20.3881 34.9348L10.6712 38.5366C9.55816 38.8924 8.51657 37.8171 8.91069 36.7157L12.9442 26.7617C13.2488 26.0063 13.115 25.145 12.5907 24.5194L6.11106 16.7988C5.42791 15.8502 6.13083 14.5271 7.29882 14.5617L17.5496 15.4363C17.9424 15.4695 18.3369 15.3967 18.6919 15.2254C19.047 15.0541 19.3495 14.7907 19.5681 14.4626L25.3763 5.74501C26.0726 4.80159 27.5437 5.06098 27.8728 6.18203Z" fill="#FDD835"/>
<path d="M25.8058 16.141L26.3316 9.05587C26.3723 8.66322 26.4095 7.98436 27.0312 8.09398C27.5236 8.1808 27.6106 9.25283 27.6106 9.25283L28.7302 15.2128C29.1492 17.4794 28.6944 18.1512 27.8521 18.4469C26.8851 18.7842 25.6542 18.1705 25.8058 16.141Z" fill="#FFFF8D"/>
<path d="M32.7649 27.439L39.6338 23.7919C39.9763 23.5953 40.5848 23.2933 40.2338 22.7649C39.9551 22.3477 38.9412 22.6988 38.9412 22.6988L33.293 23.8321C31.6213 24.099 30.4327 24.7208 30.1613 25.7201C29.8025 27.0531 30.8342 28.3107 32.7649 27.439Z" fill="#F4B400"/>
</g>
<defs>
<clipPath id="clip0_6516_13861">
<rect width="40" height="40" fill="white" transform="translate(6.94593) rotate(10)"/>
</clipPath>
</defs>
</svg>
