<svg width="122" height="122" viewBox="0 0 122 122" fill="none" xmlns="http://www.w3.org/2000/svg">
<path d="M95.915 109.745C95.4083 110.29 94.8234 110.789 94.1586 111.23C85.3064 117.101 75.0039 120.584 64.2606 121.225C49.4519 122.11 34.8328 117.534 23.1693 108.363C11.5059 99.1926 3.60723 86.0637 0.967773 71.4605C-1.67168 56.8573 1.1312 41.7928 8.84607 29.1174C16.5609 16.442 28.6527 7.03488 42.8333 2.67603C57.014 -1.68283 72.3 -0.691099 85.7991 5.46358C99.2981 11.6183 110.074 22.509 116.087 36.075C120.45 45.9161 122.086 56.6699 120.937 67.2312C120.213 73.8918 113.256 77.432 106.873 75.3977C100.491 73.364 97.1894 66.461 97.0235 59.765C96.9061 55.026 95.8636 50.3165 93.9111 45.9117C90.303 37.772 83.8375 31.2376 75.7381 27.5448C67.6387 23.852 58.4671 23.257 49.9587 25.8723C41.4503 28.4876 34.1952 34.1318 29.5663 41.7371C24.9374 49.3423 23.2557 58.381 24.8393 67.1429C26.423 75.9049 31.1622 83.7822 38.1603 89.2846C45.1583 94.7869 53.9298 97.5325 62.815 97.002C67.5745 96.7177 72.1898 95.504 76.4171 93.4705L39.8545 56.8958C49.3281 47.4191 64.6878 47.4191 74.1614 56.8958L121.333 104.083C114.46 110.959 104.489 112.846 95.915 109.745Z" fill="white"/>
</svg>
